<?xml version="1.0" encoding="UTF-8" standalone="no"?>
<svg
   viewBox="0 0 24 24"
   width="24"
   height="24"
   color="#000000"
   fill="none"
   version="1.1"
   id="svg4"
   sodipodi:docname="discord.svg"
   inkscape:version="1.4 (86a8ad7, 2024-10-11)"
   xmlns:inkscape="http://www.inkscape.org/namespaces/inkscape"
   xmlns:sodipodi="http://sodipodi.sourceforge.net/DTD/sodipodi-0.dtd"
   xmlns="http://www.w3.org/2000/svg"
   xmlns:svg="http://www.w3.org/2000/svg">
  <defs
     id="defs4" />
  <sodipodi:namedview
     id="namedview4"
     pagecolor="#505050"
     bordercolor="#ffffff"
     borderopacity="1"
     inkscape:showpageshadow="0"
     inkscape:pageopacity="0"
     inkscape:pagecheckerboard="1"
     inkscape:deskcolor="#505050"
     inkscape:zoom="35.625"
     inkscape:cx="12"
     inkscape:cy="12"
     inkscape:window-width="1920"
     inkscape:window-height="1057"
     inkscape:window-x="1072"
     inkscape:window-y="348"
     inkscape:window-maximized="1"
     inkscape:current-layer="svg4" />
  <path
     d="m 15.893955,18.362225 1.438655,1.954663 c 0.135034,0.212191 0.394534,0.306916 0.631456,0.222901 0.89407,-0.316964 3.110114,-1.175999 4.934738,-2.483929 0.142264,-0.102009 0.224463,-0.272031 0.223351,-0.447349 0,-9.734454 -2.778982,-12.4944982 -2.778982,-12.4944982 0,0 -2.224608,-1.2672686 -4.611725,-1.6493801 -0.234808,-0.037603 -0.464832,0.087295 -0.569278,0.3012753 l -0.494975,1.0133336 c 0,0 -1.23755,-0.2570153 -2.667195,-0.2570153 -1.429645,0 -2.6671949,0.2570153 -2.6671949,0.2570153 L 8.8378407,3.765908 C 8.7333175,3.5519273 8.5034042,3.4270298 8.2685411,3.4646327 5.8832042,3.8464571 3.6585952,5.1140128 3.6585952,5.1140128 c 0,0 -2.78075002,2.7600442 -2.78075002,12.4944982 -0.001112,0.175318 0.0810314,0.345337 0.22333962,0.447349 1.8245908,1.30793 4.0406795,2.166965 4.9347054,2.483929 0.2369097,0.08401 0.4964326,-0.01071 0.631522,-0.222901 l 1.4404009,-1.954663"
     stroke="currentColor"
     stroke-width="1.66223"
     stroke-linecap="round"
     stroke-linejoin="round"
     id="path1" />
  <path
     d="m 18.118565,17.258206 c 0,0 -2.55285,1.656027 -6.117675,1.656027 -3.5648581,0 -6.1176858,-1.656027 -6.1176858,-1.656027"
     stroke="currentColor"
     stroke-width="1.66223"
     stroke-linecap="round"
     stroke-linejoin="round"
     id="path2" />
  <path
     d="m 17.840489,12.290127 c 0,1.219499 -0.871492,2.208036 -1.946534,2.208036 -1.075042,0 -1.946532,-0.988537 -1.946532,-2.208036 0,-1.219498 0.87149,-2.208035 1.946532,-2.208035 1.075042,0 1.946534,0.988537 1.946534,2.208035 z"
     stroke="currentColor"
     stroke-width="1.66223"
     id="path3" />
  <path
     d="m 10.054357,12.290127 c 0,1.219499 -0.8715016,2.208036 -1.9465439,2.208036 -1.0750312,0 -1.9465328,-0.988537 -1.9465328,-2.208036 0,-1.219498 0.8715016,-2.208035 1.9465328,-2.208035 1.0750423,0 1.9465439,0.988537 1.9465439,2.208035 z"
     stroke="currentColor"
     stroke-width="1.66223"
     id="path4" />
  <path
     style="fill:#ffffff;stroke-width:0.0311061"
     d="M 5.8491514,21.328133 C 5.4701074,21.221791 4.1937105,20.697799 3.4135044,20.32824 2.6415531,19.962592 1.7207332,19.449405 1.1097566,19.04433 0.42752048,18.592009 0.24907026,18.404562 0.12986859,18.01504 0.0663025,17.807322 0.06473037,17.759834 0.08263725,16.588353 0.13109246,13.418369 0.49752092,10.698173 1.1872391,8.3882968 1.6655935,6.7862809 2.3951112,5.286579 3.0240219,4.6123413 3.1819137,4.4430698 3.2554604,4.3976262 3.8287711,4.1150964 5.1544698,3.4617865 6.4669565,2.9970576 7.6868017,2.7490338 8.2535312,2.633804 8.5044918,2.6296151 8.7927077,2.7305745 9.1825189,2.8671217 9.4179243,3.1011519 9.6629307,3.595714 L 9.7988084,3.8699913 9.9549215,3.8515068 C 10.904963,3.739014 11.092536,3.7276543 12,3.7276543 c 0.911357,0 1.049176,0.00832 2.045078,0.1234084 l 0.156114,0.01804 0.165771,-0.3271134 c 0.23848,-0.4705908 0.46934,-0.6874853 0.876744,-0.8237069 0.262405,-0.087739 0.523676,-0.080227 1.069491,0.03075 1.208698,0.2457575 2.520103,0.7086836 3.834125,1.3534478 0.389078,0.1909123 0.655623,0.3422976 0.742281,0.4215803 0.374277,0.3424266 0.937423,1.2712382 1.321404,2.1794258 1.062094,2.5120539 1.64393,5.8827047 1.706243,9.8844907 0.01825,1.172216 0.01674,1.218412 -0.047,1.426688 -0.119328,0.389939 -0.297571,0.577213 -0.980001,1.029664 -1.026007,0.68024 -2.447379,1.400255 -3.880775,1.96586 -0.815806,0.321909 -0.953389,0.362966 -1.215031,0.362567 -0.341727,-5.17e-4 -0.628591,-0.105545 -0.882893,-0.323243 -0.072,-0.06164 -0.414171,-0.495644 -0.760388,-0.964462 -0.467191,-0.632636 -0.642737,-0.848525 -0.680885,-0.837361 -0.553585,0.161982 -1.519045,0.341977 -2.283813,0.425783 -0.544412,0.05967 -1.941505,0.05019 -2.513418,-0.01704 -0.6948354,-0.08167 -1.5734366,-0.250165 -2.1264554,-0.407799 -0.056949,-0.01623 -0.1497445,0.0951 -0.6924275,0.830735 C 7.2197352,20.939373 7.1159007,21.0577 6.8702974,21.20056 6.583331,21.367481 6.1723939,21.418822 5.8491544,21.328135 Z M 6.4670975,19.217798 C 6.6610023,18.953519 6.82629,18.72012 6.8344031,18.699136 c 0.00931,-0.02408 -0.12879,-0.10508 -0.3743753,-0.219578 -0.5287363,-0.246512 -1.0219782,-0.525298 -1.1444487,-0.646857 -0.055719,-0.0553 -0.1358766,-0.175499 -0.178128,-0.2671 -0.1422173,-0.308329 -0.053242,-0.685825 0.2154555,-0.914106 0.1739691,-0.147801 0.3941602,-0.218538 0.6110949,-0.196315 0.1289093,0.0132 0.2477647,0.06136 0.5033698,0.203962 1.3177225,0.735133 2.8686057,1.219864 4.4204267,1.381614 0.586604,0.06115 1.637799,0.06115 2.224404,0 1.583151,-0.165015 3.165868,-0.665474 4.491246,-1.420142 0.269637,-0.153531 0.288701,-0.159408 0.515174,-0.158815 0.163612,4.27e-4 0.265922,0.01711 0.336225,0.05481 0.475462,0.255004 0.614998,0.771547 0.326291,1.207879 -0.106293,0.160644 -0.359105,0.31871 -1.042965,0.652089 -0.368213,0.179503 -0.579403,0.299131 -0.570888,0.323382 0.0097,0.0277 0.64221,0.901648 0.719402,0.994046 0.01102,0.01316 0.620497,-0.224217 1.127851,-0.439257 1.097007,-0.464961 2.088147,-0.986699 2.999468,-1.578928 l 0.289446,-0.188098 -5.09e-4,-0.35832 c -0.0019,-1.31678 -0.136888,-3.337164 -0.312844,-4.681417 C 21.636134,9.7437972 20.908737,7.373268 20.023822,6.0400359 19.836798,5.7582608 19.828321,5.7505112 19.561888,5.6177094 18.35441,5.0158521 17.10705,4.5734037 15.878435,4.3111583 15.81358,4.2973166 15.786798,4.338312 15.579085,4.7693854 15.311458,5.3247875 15.184444,5.4685371 14.88498,5.5549451 14.7132,5.6045107 14.688174,5.6039162 14.312766,5.5413393 13.400381,5.3892559 13.126365,5.3688151 12,5.3688151 c -1.126365,0 -1.400381,0.020441 -2.3127662,0.1725242 C 9.3118256,5.6039153 9.2868001,5.6045104 9.1150207,5.5549445 8.8155564,5.4685371 8.688542,5.3247875 8.4209155,4.7693854 8.2131979,4.3383117 8.1864164,4.2973161 8.1215658,4.3111583 6.8931418,4.5733626 5.5593185,5.0474725 4.4352946,5.6214498 4.1677742,5.7580578 4.1564632,5.7684116 3.9731641,6.0444746 3.455396,6.8242736 2.9501921,8.0671337 2.5858407,9.4574502 2.0583545,11.470268 1.7782342,13.761174 1.708619,16.631628 l -0.020669,0.852224 0.2937442,0.190034 c 1.0613149,0.686601 2.2158396,1.273005 3.5693947,1.812962 0.2927273,0.116774 0.5392564,0.212124 0.5478427,0.211887 0.00858,-2.34e-4 0.1742607,-0.216657 0.3681659,-0.480937 z"
     id="path5" />
  <path
     style="fill:#ffffff;stroke-width:0.0311061"
     d="M 7.6311861,15.267252 C 5.6193255,14.848 4.6858623,12.333157 5.8718071,10.527311 6.5359549,9.5160098 7.7016324,9.0574717 8.8152967,9.369443 c 0.2314193,0.064828 0.633942,0.2657098 0.8363364,0.4173808 0.9440759,0.7074742 1.4045129,1.9784952 1.1496459,3.1735582 -0.229615,1.076654 -0.9800599,1.932031 -1.970371,2.245877 -0.1707606,0.05412 -0.3107387,0.07151 -0.6400629,0.07953 -0.2318277,0.0057 -0.4836742,-0.0026 -0.559659,-0.01853 z m 0.8622498,-1.671481 c 0.3006478,-0.128372 0.6072527,-0.52709 0.6946415,-0.903333 0.047146,-0.202984 0.039529,-0.640846 -0.014749,-0.847677 C 9.1084524,11.597541 8.9848462,11.380372 8.8100079,11.206428 8.6170411,11.014446 8.4227264,10.924229 8.1640743,10.90653 c -0.2972972,-0.02034 -0.5265279,0.07062 -0.753851,0.299147 -0.4461319,0.44849 -0.5593741,1.20249 -0.2679554,1.784125 0.1801836,0.359625 0.3635016,0.531484 0.7002638,0.656491 0.155323,0.05765 0.4513647,0.03468 0.6509042,-0.05052 z"
     id="path6" />
  <path
     style="fill:#ffffff;stroke-width:0.0311061"
     d="m 15.348789,15.252326 c -0.855872,-0.194484 -1.629328,-0.870589 -1.972983,-1.724656 -0.177739,-0.441727 -0.232847,-0.735195 -0.231843,-1.234636 6.01e-4,-0.298622 0.01774,-0.522482 0.05108,-0.66735 0.272059,-1.182063 1.080864,-2.0439327 2.151821,-2.2929986 0.271819,-0.063216 0.773999,-0.070921 1.039913,-0.015957 1.046523,0.2163179 1.875668,1.0496036 2.175194,2.1860606 0.08339,0.316397 0.111978,0.945424 0.05814,1.279037 -0.186298,1.154169 -0.912746,2.051499 -1.940929,2.397494 -0.261489,0.08799 -0.336948,0.0994 -0.7139,0.107851 -0.28547,0.0064 -0.48443,-0.0048 -0.616479,-0.03485 z m 0.944316,-1.660458 c 0.324629,-0.151285 0.598327,-0.530414 0.688822,-0.954165 0.113864,-0.533184 -0.0347,-1.078213 -0.390344,-1.432026 -0.415435,-0.413298 -0.993532,-0.408134 -1.410792,0.01259 -0.162508,0.163862 -0.314667,0.441813 -0.368279,0.672747 -0.04603,0.198289 -0.0404,0.63771 0.01068,0.827936 0.120865,0.450627 0.428007,0.802231 0.808802,0.925883 0.181041,0.05879 0.471232,0.03554 0.661164,-0.05299 z"
     id="path7" />
</svg>
