<?xml version="1.0" encoding="UTF-8" standalone="no"?>
<svg
   width="24"
   height="24"
   viewBox="0 0 24 24"
   fill="none"
   stroke="currentColor"
   stroke-width="2"
   stroke-linecap="round"
   stroke-linejoin="round"
   class="lucide lucide-instagram"
   version="1.1"
   id="svg1"
   sodipodi:docname="instagram.svg"
   inkscape:version="1.4 (86a8ad7, 2024-10-11)"
   xmlns:inkscape="http://www.inkscape.org/namespaces/inkscape"
   xmlns:sodipodi="http://sodipodi.sourceforge.net/DTD/sodipodi-0.dtd"
   xmlns="http://www.w3.org/2000/svg"
   xmlns:svg="http://www.w3.org/2000/svg">
  <defs
     id="defs1" />
  <sodipodi:namedview
     id="namedview1"
     pagecolor="#505050"
     bordercolor="#ffffff"
     borderopacity="1"
     inkscape:showpageshadow="0"
     inkscape:pageopacity="0"
     inkscape:pagecheckerboard="1"
     inkscape:deskcolor="#505050"
     inkscape:zoom="35.625"
     inkscape:cx="12"
     inkscape:cy="12"
     inkscape:window-width="1920"
     inkscape:window-height="1057"
     inkscape:window-x="1072"
     inkscape:window-y="348"
     inkscape:window-maximized="1"
     inkscape:current-layer="svg1" />
  <rect
     width="21.759489"
     height="21.78756"
     x="1.1623603"
     y="1.1342902"
     rx="5.4398723"
     ry="5.4468899"
     id="rect1"
     style="stroke-width:2.17736" />
  <path
     d="M16 11.37A4 4 0 1 1 12.63 8 4 4 0 0 1 16 11.37z"
     id="path1" />
  <line
     x1="17.5"
     x2="17.51"
     y1="6.5"
     y2="6.5"
     id="line1" />
  <path
     style="fill:#ffffff;stroke-width:0.0561404"
     d="m 11.578947,16.922405 c -0.0386,-0.0057 -0.164912,-0.02391 -0.280701,-0.04053 C 10.230845,16.728605 9.251026,16.218857 8.4621935,15.406428 6.9844382,13.884469 6.6399847,11.627966 7.5945735,9.7226798 8.283148,8.348338 9.5327817,7.3940644 11.072046,7.0671339 c 0.317898,-0.06752 0.41178,-0.074992 0.956024,-0.076088 0.668108,-0.00135 0.976664,0.042178 1.509844,0.2129706 1.561344,0.5001428 2.757468,1.6952931 3.25682,3.2541685 0.169747,0.529915 0.215064,0.845924 0.215064,1.49971 0,0.503166 -0.0094,0.636326 -0.06445,0.909472 -0.433778,2.153854 -2.121837,3.750312 -4.262168,4.030885 -0.286915,0.03761 -0.918444,0.05143 -1.104236,0.02415 z m 0.898246,-1.987732 c 0.347775,-0.05273 0.601595,-0.132075 0.912281,-0.285173 0.636418,-0.313611 1.180062,-0.901151 1.444206,-1.56082 0.163531,-0.408399 0.209618,-0.66219 0.207894,-1.14482 -0.0017,-0.482809 -0.05639,-0.760672 -0.233226,-1.185445 C 14.535221,10.102334 13.897666,9.4647788 13.241585,9.1916516 12.816812,9.0148182 12.538949,8.9601511 12.05614,8.9584261 c -0.47957,-0.00171 -0.717188,0.040929 -1.142908,0.2051042 -0.490698,0.189233 -1.0607969,0.6470968 -1.3568411,1.0897197 -0.690621,1.032564 -0.6993243,2.333914 -0.02257,3.37482 0.1525247,0.234596 0.6035131,0.685585 0.8381091,0.838109 0.637982,0.41479 1.376126,0.579052 2.105263,0.468494 z"
     id="path2" />
  <path
     style="fill:#ffffff;stroke-width:0.0561404"
     d="m 17.193134,7.4355378 c -0.255765,-0.092843 -0.453642,-0.2687861 -0.580595,-0.5162396 -0.0705,-0.1374205 -0.07921,-0.1836898 -0.07921,-0.4210526 0,-0.2500309 0.006,-0.2776434 0.09541,-0.4426201 0.114155,-0.2105166 0.263086,-0.3516905 0.476656,-0.4518314 0.134678,-0.063149 0.194711,-0.073812 0.410386,-0.072896 0.221706,9.422e-4 0.272689,0.011095 0.416472,0.082941 0.593452,0.2965343 0.739258,1.0573477 0.295654,1.5427202 -0.196347,0.214835 -0.388626,0.3039604 -0.681017,0.3156653 -0.159771,0.0064 -0.265199,-0.00454 -0.353764,-0.036687 z"
     id="path3" />
  <path
     style="fill:#ffffff;stroke-width:0.0561404"
     d="M 5.8666667,23.954823 C 4.6535986,23.80641 3.6052418,23.379836 2.6117681,22.630413 2.3005399,22.39564 1.6642978,21.753281 1.4243486,21.431579 0.68548034,20.44097 0.27060243,19.400502 0.12628361,18.176175 c -0.0178287,-0.15125 -0.028038,-2.390043 -0.028038,-6.148435 0,-6.6739135 -0.01208347,-6.2871592 0.22413591,-7.1738885 C 0.61057564,3.7720174 1.174822,2.8067853 2.0046065,1.9761412 3.0661446,0.91350349 4.3279949,0.29699689 5.8234945,0.11033391 c 0.4796019,-0.05986223 11.9576195,-0.05986223 12.4372215,0 1.176303,0.14682199 2.18013,0.54965579 3.142793,1.26119649 0.341385,0.252331 0.999956,0.9091368 1.256399,1.253031 0.614449,0.8239888 1.030727,1.7474905 1.214678,2.6947368 0.111519,0.574258 0.111379,0.5658055 0.111379,6.7084418 0,3.758392 -0.01021,5.997185 -0.02804,6.148435 -0.17366,1.473241 -0.779755,2.772102 -1.776532,3.807107 -0.936298,0.972205 -2.08019,1.606869 -3.38451,1.877822 -0.609579,0.12663 -0.521712,0.125062 -6.795818,0.12131 -3.2658502,-0.002 -6.0263302,-0.01437 -6.1344003,-0.02759 z M 18.231579,21.787194 c 0.931734,-0.188167 1.646287,-0.553462 2.28389,-1.167576 0.670023,-0.645338 1.092612,-1.447159 1.273378,-2.416109 0.04662,-0.249876 0.04975,-0.638726 0.04975,-6.175439 0,-5.5367125 -0.0031,-5.9255631 -0.04975,-6.1754384 C 21.604815,4.8661707 21.17813,4.0663812 20.485864,3.4102827 19.76641,2.7284165 18.927252,2.3439698 17.916896,2.2333517 17.538703,2.1919456 6.5461985,2.1918922 6.1673148,2.2332947 5.1605794,2.3433055 4.3157311,2.7303777 3.5983464,3.4102827 2.9060806,4.0663812 2.479396,4.8661707 2.295363,5.8526316 2.2487466,6.1025069 2.245614,6.4913575 2.245614,12.02807 c 0,5.536713 0.00313,5.925563 0.049749,6.175439 0.184033,0.986461 0.6107176,1.78625 1.3029834,2.442349 0.707929,0.670943 1.5779834,1.072243 2.5499088,1.176107 0.1230212,0.01315 2.8384115,0.02154 6.0342008,0.01866 5.366713,-0.0048 5.828751,-0.0089 6.049123,-0.05343 z"
     id="path4" />
</svg>
