<?xml version="1.0" encoding="UTF-8" standalone="no"?>
<svg
   width="24"
   height="24"
   viewBox="0 0 24 24"
   fill="none"
   stroke="currentColor"
   stroke-width="2"
   stroke-linecap="round"
   stroke-linejoin="round"
   class="lucide lucide-mail"
   version="1.1"
   id="svg1"
   sodipodi:docname="mail.svg"
   inkscape:version="1.4 (86a8ad7, 2024-10-11)"
   xmlns:inkscape="http://www.inkscape.org/namespaces/inkscape"
   xmlns:sodipodi="http://sodipodi.sourceforge.net/DTD/sodipodi-0.dtd"
   xmlns="http://www.w3.org/2000/svg"
   xmlns:svg="http://www.w3.org/2000/svg">
  <defs
     id="defs1" />
  <sodipodi:namedview
     id="namedview1"
     pagecolor="#505050"
     bordercolor="#ffffff"
     borderopacity="1"
     inkscape:showpageshadow="0"
     inkscape:pageopacity="0"
     inkscape:pagecheckerboard="1"
     inkscape:deskcolor="#505050"
     inkscape:zoom="35.625"
     inkscape:cx="12"
     inkscape:cy="12"
     inkscape:window-width="1920"
     inkscape:window-height="1057"
     inkscape:window-x="1072"
     inkscape:window-y="348"
     inkscape:window-maximized="1"
     inkscape:current-layer="svg1" />
  <rect
     width="20"
     height="16"
     x="2"
     y="4"
     rx="2"
     id="rect1" />
  <path
     d="m22 7-8.97 5.7a1.94 1.94 0 0 1-2.06 0L2 7"
     id="path1" />
  <path
     style="fill:#ffffff;stroke-width:0.0561404"
     d="M 3.4850603,20.937795 C 2.3241238,20.727194 1.4223482,19.890443 1.1013723,18.725988 L 1.0385965,18.498246 V 12 5.5017544 L 1.1016615,5.2728798 C 1.3997077,4.1912156 2.1835759,3.4038536 3.2561404,3.1087982 l 0.2807017,-0.077219 8.3649119,-0.00735 c 7.463195,-0.00655 8.390633,-0.00265 8.603509,0.036259 0.331583,0.0606 0.559506,0.1382687 0.870176,0.2965275 0.746072,0.3800582 1.287297,1.0612102 1.523189,1.916993 l 0.06278,0.227742 V 12 18.498246 l -0.06278,0.227742 c -0.30663,1.112408 -1.124892,1.911089 -2.246465,2.192704 -0.175111,0.04397 -0.804937,0.04788 -8.567952,0.05325 -7.1428805,0.0049 -8.4114323,-9.8e-5 -8.5991507,-0.03415 z M 20.421053,18.916253 c 0.218912,-0.104689 0.39608,-0.277767 0.49936,-0.487831 l 0.07608,-0.154738 0.0074,-4.738745 c 0.006,-3.8137196 4.89e-4,-4.7344823 -0.02807,-4.716905 -0.01952,0.012012 -1.702856,1.0821372 -3.74075,2.378056 -2.037895,1.295918 -3.812632,2.410432 -3.94386,2.476695 -0.787998,0.397903 -1.768345,0.404042 -2.554386,0.01599 C 10.588423,13.615509 4.3053592,9.6463326 3.0522321,8.83421 l -0.063557,-0.04119 0.00742,4.740332 0.00742,4.740332 0.076078,0.154738 c 0.1336379,0.271811 0.4043157,0.491415 0.6887196,0.558766 0.060444,0.01431 3.5944308,0.02312 8.2878333,0.02064 l 8.182456,-0.0043 z m -8.09153,-6.967878 c 0.0735,-0.02839 2.058185,-1.275037 4.410412,-2.7703189 L 21.016713,6.4593614 21.004979,6.0928387 C 20.994569,5.7677009 20.984837,5.7088439 20.91879,5.5715778 20.818271,5.3626714 20.641005,5.1889333 20.421053,5.0837464 L 20.238596,4.9964912 H 12 3.7614035 L 3.5789474,5.0837464 C 3.360036,5.1884355 3.1824949,5.3618794 3.0794253,5.5717411 3.010939,5.7111869 3.0025658,5.762163 2.9938739,6.0925746 l -0.00964,0.3662585 4.2939643,2.7287742 c 2.3616806,1.5008257 4.3428588,2.7466977 4.4026178,2.7686057 0.159358,0.05842 0.487452,0.05446 0.648702,-0.0078 z"
     id="path2" />
</svg>
